<svg xmlns="http://www.w3.org/2000/svg" xmlns:xlink="http://www.w3.org/1999/xlink" width="219" height="319" viewBox="0 0 349 510">
    <defs>
        <path id="a" d="M0 0h348.939v509.828H0z"/>
    </defs>
    <g fill="none" fill-rule="evenodd">
        <mask id="b" fill="#fff">
            <use xlink:href="#a"/>
        </mask>
        <path fill="#FFF" d="M77.073 444.541l27.537-25.586h64.923l-27.064 25.586H77.073zm-46.181-46.18l163.464-151.877c22.302-19.732 38.502-39.58 48.593-59.53 10.073-19.95 15.118-40.432 15.118-61.46 0-3.364-.22-6.608-.416-9.863 3.6 1.012 7.12 2.175 10.52 3.558 1.653.673 3.183 1.475 4.77 2.217 1.166 2.436 2.307 4.895 3.314 7.472 4.923 12.661 7.402 26.286 7.402 40.868 0 9.872-1.292 19.304-3.867 28.316-2.566 9.008-6.756 18.453-12.543 28.316-5.796 9.872-13.626 20.491-23.49 31.856-9.88 11.373-22.101 24.131-36.687 38.293L99.353 398.36H30.892zM228.596 90.872c-18.881 0-35.937 3.216-51.16 9.654-15.24 6.437-28.22 14.267-38.94 23.49-10.726 9.23-18.88 19.206-24.457 29.926-1.661 3.195-2.994 6.263-4.16 9.268l-27.466-27.466c3.016-9.347 7.41-18.087 13.322-26.17 6.442-8.79 14.053-16.415 22.852-22.849 8.78-6.437 18.549-11.364 29.276-14.804 10.719-3.426 21.883-5.145 33.466-5.145 15.45 0 29.495 2.575 42.152 7.72 1.29.526 2.474 1.165 3.724 1.732.992 2.125 1.998 4.236 2.869 6.468 1.064 2.738 1.96 5.542 2.797 8.371-1.432-.045-2.827-.195-4.275-.195zm92.35 82.696c4.923 12.661 7.402 26.287 7.402 40.868 0 9.873-1.292 19.304-3.867 28.316-2.566 9.008-6.756 18.453-12.543 28.317-5.796 9.872-13.626 20.491-23.49 31.855-9.88 11.374-22.1 24.131-36.686 38.294l-60.443 57.141h-64.542l113.76-105.695c22.302-19.732 38.502-39.58 48.593-59.53 10.073-19.95 15.118-40.432 15.118-61.46 0-10.513-1.07-20.438-3-29.888 8.342 9.02 14.935 19.588 19.698 31.782zm-77.914 245.386l25.585 25.586h-98.752l27.538-25.586h45.629zm94.97 70.278H121.764l25.934-24.096H293.31c2.994 0 5.464-1.065 7.402-3.217 1.929-2.143 2.889-4.504 2.889-7.079 0-1.709-.463-3.31-1.311-4.829l.318-.317-1.774-1.773c-.045-.053-.075-.108-.122-.16-.124-.137-.27-.232-.398-.36L255.512 402.6l-.113.113c-.274-.38-.537-.763-.867-1.13-1.938-2.144-4.408-3.222-7.402-3.222h-27.56l65.658-61.004c22.302-19.73 38.503-39.58 48.593-59.53 10.073-19.95 15.118-40.432 15.118-61.46 0-18.876-3.116-36.037-9.331-51.482-6.223-15.446-14.804-28.639-25.741-39.58-7.694-7.698-16.347-14.1-25.85-19.355-5.236-9.443-11.455-17.948-18.841-25.337-7.957-7.96-16.912-14.573-26.803-19.92-5.336-9.827-11.747-18.627-19.378-26.26-10.938-10.943-23.708-19.41-38.294-25.419C170.116 3.007 154.457 0 137.723 0c-18.88 0-35.936 3.217-51.16 9.654-15.24 6.438-28.22 14.267-38.938 23.49-10.728 9.23-18.881 19.207-24.458 29.926-5.578 10.728-8.362 20.382-8.362 28.958 0 6.87 3.43 10.3 10.299 10.3 5.142 0 8.572-3.43 10.292-10.3 3.003-10.296 7.725-19.836 14.158-28.635 6.442-8.79 14.053-16.415 22.852-22.848 8.78-6.437 18.548-11.365 29.276-14.804 10.719-3.426 21.883-5.145 33.466-5.145 15.45 0 29.495 2.575 42.152 7.721 11.93 4.857 22.096 11.595 30.603 20.077-7.74-1.466-15.736-2.213-24-2.213-18.88 0-35.935 3.217-51.158 9.654-15.24 6.438-28.22 14.268-38.94 23.49-10.727 9.23-18.88 19.207-24.457 29.926-5.578 10.728-8.362 20.382-8.362 28.958 0 3.986 1.192 6.777 3.503 8.45l43.039 43.038a7.315 7.315 0 0 0 1.652 1.652l1.473 1.473.438-.437c1.374.525 2.985.815 4.886.815 5.14 0 8.572-3.43 10.29-10.3 3.004-10.296 7.726-19.836 14.159-28.635 6.442-8.79 14.054-16.414 22.852-22.847 8.78-6.438 18.549-11.365 29.277-14.804 10.718-3.426 21.883-5.146 33.466-5.146 3.708 0 7.326.167 10.873.464.364 3.812.582 7.68.582 11.633 0 9.872-1.292 19.304-3.867 28.316-2.566 9.008-6.756 18.453-12.543 28.316-5.796 9.872-13.626 20.491-23.49 31.856-9.88 11.374-22.101 24.131-36.686 38.293L7.726 395.143C2.576 400.294 0 405.553 0 410.913c0 5.367 4.932 8.042 14.805 8.042h62.763l-23.662 22.37c-5.15 5.15-7.724 10.41-7.724 15.768 0 5.368 4.93 8.044 14.804 8.044h59.698l-22.086 20.88c-5.15 5.15-7.725 10.408-7.725 15.767 0 5.37 4.932 8.044 14.804 8.044h232.325c2.994 0 5.465-1.065 7.402-3.217 1.929-2.143 2.89-4.503 2.89-7.079 0-2.574-.961-4.927-2.89-7.079-1.937-2.142-4.408-3.22-7.402-3.22z" mask="url(#b)"/>
    </g>
</svg>
